HIERARCHY
ROOT Hips
{
	OFFSET -3.958830 18.904000 13.208200
	CHANNELS 6 Xposition Yposition Zposition Zrotation Yrotation Xrotation 
	JOINT LHipJoint
	{
		OFFSET 0.000000 0.000000 0.000000
		CHANNELS 3 Zrotation Yrotation Xrotation
		JOINT LeftUpLeg
		{
			OFFSET 1.800000 -1.400000 0.085000
			CHANNELS 3 Zrotation Yrotation Xrotation
			JOINT LeftLeg
			{
				OFFSET 2.215000 -6.000000 0.000000
				CHANNELS 3 Zrotation Yrotation Xrotation
				JOINT LeftFoot
				{
					OFFSET 2.500000 -6.900000 0.000000
					CHANNELS 3 Zrotation Yrotation Xrotation
					JOINT LeftToeBase
					{
						OFFSET 0.200000 -0.500000 1.950000
						CHANNELS 3 Zrotation Yrotation Xrotation
						End Site
						{
							OFFSET 0.000000 0.000000 0.000000
						}
					}
				}
			}
		}
	}
	JOINT RHipJoint
	{
		OFFSET 0.000000 0.000000 0.000000
		CHANNELS 3 Zrotation Yrotation Xrotation
		JOINT RightUpLeg
		{
			OFFSET -1.800000 -1.400000 0.085000
			CHANNELS 3 Zrotation Yrotation Xrotation
			JOINT RightLeg
			{
				OFFSET -2.215000 -6.000000 0.000000
				CHANNELS 3 Zrotation Yrotation Xrotation
				JOINT RightFoot
				{
					OFFSET -2.500000 -6.900000 0.000000
					CHANNELS 3 Zrotation Yrotation Xrotation
					JOINT RightToeBase
					{
						OFFSET -0.200000 -0.500000 1.950000
						CHANNELS 3 Zrotation Yrotation Xrotation
						End Site
						{
							OFFSET 0.000000 0.000000 0.000000
						}
					}
				}
			}
		}
	}
	JOINT LowerBack
	{
		OFFSET 0.000000 0.000000 0.000000
		CHANNELS 3 Zrotation Yrotation Xrotation
		JOINT Spine
		{
			OFFSET -0.087000 1.940000 -0.288900
			CHANNELS 3 Zrotation Yrotation Xrotation
			JOINT Spine1
			{
				OFFSET 0.000000 1.950000 0.060000
				CHANNELS 3 Zrotation Yrotation Xrotation
				JOINT Neck
				{
					OFFSET 0.000000 0.000000 0.000000
					CHANNELS 3 Zrotation Yrotation Xrotation
					JOINT Neck1
					{
						OFFSET 0.000000 1.600000 0.340000
						CHANNELS 3 Zrotation Yrotation Xrotation
						JOINT Head
						{
							OFFSET 0.000000 1.667000 -0.240000
							CHANNELS 3 Zrotation Yrotation Xrotation
							End Site
							{
								OFFSET 0.000000 0.000000 0.000000
							}
						}
					}
				}
				JOINT LeftShoulder
				{
					OFFSET 0.000000 0.000000 0.000000
					CHANNELS 3 Zrotation Yrotation Xrotation
					JOINT LeftArm
					{
						OFFSET 2.700000 1.550000 -0.730000
						CHANNELS 3 Zrotation Yrotation Xrotation
						JOINT LeftForeArm
						{
							OFFSET 5.450000 0.000000 0.000000
							CHANNELS 3 Zrotation Yrotation Xrotation
							JOINT LeftHand
							{
								OFFSET 3.450000 0.000000 0.000000
								CHANNELS 3 Zrotation Yrotation Xrotation
								JOINT LeftHandIndex1
								{
									OFFSET 0.750000 0.000000 0.000000
									CHANNELS 3 Zrotation Yrotation Xrotation
									End Site
									{
										OFFSET 0.000000 0.000000 0.000000
									}
								}
							}
						}
					}
				}
				JOINT RightShoulder
				{
					OFFSET 0.000000 0.000000 0.000000
					CHANNELS 3 Zrotation Yrotation Xrotation
					JOINT RightArm
					{
						OFFSET -2.700000 1.550000 -0.730000
						CHANNELS 3 Zrotation Yrotation Xrotation
						JOINT RightForeArm
						{
							OFFSET -5.450000 0.000000 0.000000
							CHANNELS 3 Zrotation Yrotation Xrotation
							JOINT RightHand
							{
								OFFSET -3.450000 0.000000 0.000000
								CHANNELS 3 Zrotation Yrotation Xrotation
								JOINT RightHandIndex1
								{
									OFFSET -0.750000 0.000000 0.000000
									CHANNELS 3 Zrotation Yrotation Xrotation
									End Site
									{
										OFFSET 0.000000 0.000000 0.000000
									}
								}
							}
						}
					}
				}
			}
		}
	}
}
MOTION
Frames: 8
Frame Time: 0.016667
0.080870 17.106480 -9.106080 -2.833347 10.915521 -0.782892 -14.539118 11.519426 2.699532 4.494160 -1.645756 -12.166624 -10.850591 5.388247 8.661418 -2.097856 5.275203 2.871710 0.290650 -0.636690 0.344110 18.912527 -12.010905 3.347989 -3.826794 1.679003 -6.299905 15.826675 -6.694924 8.648147 -0.346580 -4.792996 2.577663 0.353480 0.987200 0.438520 -5.648180 3.460870 -7.570824 15.222528 1.698790 11.103354 -26.656903 5.435802 13.663386 15.697882 -10.884436 -4.026499 -12.911665 14.938143 44.844362 4.613490 -4.204260 -17.386030 -24.245883 -13.815109 4.755978 -41.572150 -15.860200 1.959246 1.049727 -16.957462 -3.267528 -4.472583 2.152618 1.264740 0.402390 -0.400540 -0.016630 -5.561916 24.860367 -7.691702 28.336927 56.097082 16.743478 -20.552349 57.465740 -7.463729 0.752074 -0.109437 -1.095040 0.964240 0.791010 -0.562240 
0.094120 17.094690 -9.095530 -2.694656 10.324036 -0.896281 -14.518785 11.529233 2.695197 4.340875 -1.680903 -11.879630 -10.907197 5.474551 8.970597 -2.090986 5.314604 2.854762 0.290890 -0.641310 0.357380 18.936126 -12.021538 3.319720 -4.022738 1.520674 -6.131970 15.515915 -6.720285 8.666262 -0.344588 -4.793490 2.569996 0.353790 0.977290 0.436820 -5.695659 3.443558 -7.531700 15.553796 1.221959 10.729819 -27.515848 4.889410 13.530193 15.631411 -11.395999 -3.907008 -13.917397 15.653814 44.785194 4.299610 -3.967860 -17.153820 -23.874042 -12.986135 4.556234 -41.783720 -15.647718 2.051618 1.691114 -16.440736 -3.316663 -4.477465 2.156668 1.261590 0.398990 -0.400050 -0.022730 -5.942189 23.979880 -7.727468 29.374373 56.457650 17.685090 -21.647999 59.271829 -8.236173 0.694269 -0.035477 -1.096310 0.957680 0.788180 -0.568180 
0.120620 17.088600 -9.082690 -2.980900 9.835308 -1.003755 -14.451257 11.507724 2.653377 4.344037 -1.751703 -11.717633 -10.619933 5.540516 9.646368 -2.093748 5.331678 2.849733 0.276010 -0.662560 0.362100 19.008369 -12.076110 3.322824 -3.950284 1.319849 -5.925006 15.357239 -6.742630 8.426413 -0.342182 -4.803783 2.568312 0.344630 0.974930 0.429250 -5.883680 3.577036 -7.487315 17.175820 0.529395 10.057581 -29.149578 4.066950 13.355388 15.729705 -11.925437 -3.814749 -14.871720 16.310924 44.817982 3.838780 -3.767840 -16.703900 -23.626485 -11.690135 4.187692 -41.581440 -15.226266 2.063578 1.600511 -16.198311 -3.243448 -4.485135 2.154057 1.256140 0.402080 -0.408910 -0.032870 -6.603606 22.416533 -7.389423 31.124154 56.908781 18.734943 -23.418693 62.674228 -9.835939 0.586949 0.098636 -1.104760 0.953650 0.791560 -0.575380 
0.149350 17.091130 -9.072170 -3.233323 9.014865 -1.129108 -14.394954 11.476390 2.612116 4.344305 -1.821723 -11.537131 -10.423063 5.611973 10.250836 -2.055806 5.316071 2.847797 0.264760 -0.667140 0.382740 19.072249 -12.109912 3.342847 -3.962640 1.010551 -5.367062 15.272357 -6.675971 7.500798 -0.350967 -4.809938 2.568738 0.324970 0.938510 0.419290 -6.031923 3.703084 -7.424033 18.779363 -0.079433 9.354169 -30.654114 3.494333 13.440915 15.947204 -12.148632 -3.807714 -15.247202 16.593373 44.875441 3.003020 -3.405240 -16.408300 -23.524377 -10.480056 3.849318 -41.241199 -14.755862 1.769201 1.713331 -16.702116 -3.172757 -4.471899 2.160514 1.236930 0.392010 -0.401650 -0.057010 -7.337762 20.961310 -6.769443 31.931030 56.048372 17.564335 -26.518871 69.134482 -13.955437 0.511319 0.176481 -1.084610 0.922270 0.778370 -0.581790 
0.181680 17.096870 -9.060540 -3.422078 7.760136 -1.437800 -14.359080 11.464162 2.585415 4.305781 -1.834334 -10.906460 -10.269129 5.598295 10.359264 -2.010743 5.311029 2.858483 0.276710 -0.654110 0.390870 19.113322 -12.130986 3.339708 -4.182355 0.781047 -4.846496 15.215271 -6.706090 7.118916 -0.380591 -4.838342 2.563359 0.311880 0.915570 0.422290 -6.109174 3.773960 -7.331908 20.333473 -0.654570 9.062610 -31.543121 3.063828 13.554935 15.928275 -12.594969 -3.667109 -16.183459 16.908109 44.290717 2.926830 -3.533390 -16.869500 -22.976404 -9.332287 3.456880 -41.777706 -14.381539 1.571973 1.892159 -17.242930 -3.171293 -4.445847 2.164939 1.238420 0.369940 -0.382980 -0.050720 -8.076984 19.930672 -6.489014 30.940981 53.850506 14.894062 -34.205936 77.481748 -23.340581 0.470093 0.337860 -1.058980 0.907270 0.760550 -0.574650 
0.221850 17.090640 -9.043080 -3.287833 6.194718 -1.275977 -14.369620 11.465935 2.585875 3.968271 -1.868368 -10.623295 -10.385650 5.622092 10.323184 -1.938570 5.301476 2.884122 0.249620 -0.664170 0.336640 19.111868 -12.102581 3.293554 -4.777617 0.661887 -4.789680 15.148798 -6.738903 6.980801 -0.371017 -4.856859 2.583851 0.285980 0.930630 0.407220 -6.049401 3.743596 -7.181465 21.482669 -1.100586 8.680252 -31.994211 2.536041 13.092089 15.743093 -12.996471 -3.619668 -17.341122 17.022300 42.706583 3.200900 -3.975760 -16.513650 -22.053174 -7.399155 2.697618 -43.016975 -13.569233 1.296573 1.514012 -18.570364 -3.068052 -4.439714 2.177485 1.201590 0.370730 -0.401740 -0.035520 -8.931653 18.155161 -5.970979 30.000010 51.924143 12.525696 -65.150493 85.054233 -52.294608 0.086197 2.478765 -1.038800 0.898690 0.759590 -0.545400 
0.263550 17.088810 -9.022760 -2.870483 3.934653 -0.909010 -14.380403 11.663173 2.701528 3.352939 -1.894602 -10.610762 -10.635123 5.666941 10.174866 -1.800226 5.280273 2.931479 0.238830 -0.663320 0.296140 19.068472 -11.973144 3.246299 -5.619129 0.704522 -5.166810 14.893588 -6.732127 7.237262 -0.353026 -4.792650 2.636770 0.237690 0.937070 0.416050 -5.945431 3.142751 -7.188104 22.296229 -1.858957 8.641037 -32.369194 2.347310 13.707786 15.448149 -12.344891 -5.089508 -17.406745 16.510362 41.177819 3.165440 -4.314100 -15.543850 -21.324859 -5.401068 0.999450 -43.833545 -13.164091 0.817068 0.671438 -19.823234 -2.820859 -4.412029 2.221828 1.146580 0.374060 -0.406650 0.000770 -9.517813 16.170238 -1.765102 23.468050 51.828442 20.293158 -115.391245 68.962200 -105.342079 1.447872 -0.092667 -0.978390 0.858580 0.729040 -0.507320 
0.313610 17.097850 -9.012070 -2.720067 1.836396 -0.794183 -14.349861 11.715274 2.760197 2.859219 -1.918745 -10.611333 -10.837338 5.739600 10.368593 -1.671232 5.203635 2.980468 0.224400 -0.635670 0.250530 19.072788 -12.011361 3.212267 -6.323728 0.743321 -5.671592 14.646006 -6.831390 7.973397 -0.349816 -4.765604 2.673243 0.198270 0.920060 0.405920 -5.959399 3.095565 -7.200248 23.985854 -2.277628 8.942757 -32.716894 2.054673 13.481028 15.559489 -12.052000 -5.623158 -17.195013 15.649710 40.428283 2.959310 -4.632680 -15.128130 -20.775807 -4.867045 1.026539 -44.344499 -11.669957 -0.027392 -0.461970 -21.804808 -2.513723 -4.353528 2.291381 1.086090 0.365520 -0.399310 0.020610 -10.375096 15.596297 -0.752217 20.221496 47.874503 14.907206 -137.843119 65.685063 -130.224685 1.374318 -1.247152 -0.909730 0.821130 0.697760 -0.465780 
